<svg width="60" height="60" viewBox="0 0 60 60" fill="none" xmlns="http://www.w3.org/2000/svg">
<g clip-path="url(#clip0_2103_8536)">
<g clip-path="url(#clip1_2103_8536)">
<path fill-rule="evenodd" clip-rule="evenodd" d="M56.368 31.1818C56.368 31.996 55.8415 32.7176 55.0661 32.9665C53.2815 33.498 51.9908 35.1588 51.9908 37.1186C51.9908 39.0783 53.2815 40.7391 55.0573 41.2956C55.8215 41.542 56.3405 42.2524 56.3405 43.0553C56.368 43.9095 56.368 44.9737 56.368 45.8729C56.368 46.9084 55.5276 47.7489 54.4921 47.7489C46.3217 47.7489 13.888 47.7489 5.71774 47.7489C4.68222 47.7489 3.8418 46.9084 3.8418 45.8729C3.8418 44.9737 3.8418 43.9095 3.8418 43.0553C3.8418 42.2411 4.36831 41.5195 5.1437 41.2706C6.92834 40.7391 8.21899 39.0783 8.21899 37.1186C8.21899 35.1588 6.92835 33.498 5.15246 32.9415C4.38833 32.6951 3.86932 31.9847 3.86932 31.1818C3.8418 30.5815 3.8418 29.8987 3.8418 29.2984C3.8418 28.4842 4.36831 27.7626 5.1437 27.5138C6.92834 26.9822 8.21899 25.3214 8.21899 23.3617C8.21899 21.4019 6.92835 19.7411 5.15246 19.1846C4.38833 18.9382 3.86932 18.2278 3.86932 17.4249C3.8418 16.5708 3.8418 15.5065 3.8418 14.6073C3.8418 13.5718 4.68222 12.7314 5.71774 12.7314H54.4921C55.5276 12.7314 56.368 13.5718 56.368 14.6073V17.4249C56.368 18.2391 55.8415 18.9607 55.0661 19.2096C53.2815 19.7411 51.9908 21.4019 51.9908 23.3617C51.9908 25.3214 53.2815 26.9822 55.0573 27.5388C55.8215 27.7851 56.3405 28.4955 56.3405 29.2984C56.368 29.8987 56.368 30.5815 56.368 31.1818Z" fill="#FDF0EA"/>
<path fill-rule="evenodd" clip-rule="evenodd" d="M32.1644 23.6148C32.5096 23.0842 33.1006 22.7646 33.7337 22.7646C34.3669 22.7646 34.9578 23.0842 35.303 23.6148C35.6362 24.1229 35.9573 24.6158 36.1955 24.9806C36.4472 25.365 36.8316 25.6439 37.2748 25.7645C37.6954 25.8776 38.2622 26.0314 38.8487 26.1912C39.4607 26.3555 39.9461 26.8183 40.1421 27.4213C40.3381 28.0228 40.216 28.683 39.8195 29.176C39.4381 29.6493 39.0688 30.1077 38.7959 30.4468C38.508 30.8041 38.3617 31.2563 38.3844 31.7161C38.4055 32.1503 38.4341 32.7382 38.4642 33.3443C38.4959 33.9774 38.2065 34.5819 37.6939 34.9543C37.1829 35.3266 36.5165 35.4156 35.9256 35.1894C35.3573 34.9739 34.807 34.7643 34.4015 34.609C33.9704 34.4462 33.497 34.4462 33.0659 34.609C32.6604 34.7643 32.1101 34.9739 31.5418 35.1894C30.9509 35.4156 30.2846 35.3266 29.7735 34.9543C29.261 34.5819 28.9715 33.9774 29.0032 33.3443C29.0333 32.7382 29.062 32.1503 29.0831 31.7161C29.1057 31.2563 28.9595 30.8041 28.6715 30.4468C28.3987 30.1077 28.0293 29.6493 27.6479 29.176C27.2515 28.683 27.1293 28.0228 27.3253 27.4213C27.5213 26.8183 28.0067 26.3555 28.6188 26.1912C29.2052 26.0314 29.772 25.8776 30.1926 25.7645C30.6358 25.6439 31.0202 25.365 31.272 24.9806C31.5102 24.6158 31.8312 24.1229 32.1644 23.6148Z" fill="white"/>
<path fill-rule="evenodd" clip-rule="evenodd" d="M22.6018 46.498C23.2922 46.498 23.8524 47.0582 23.8524 47.7486C23.8524 48.4389 23.2922 48.9992 22.6018 48.9992C21.9115 48.9992 21.3512 48.4389 21.3512 47.7486C21.3512 47.0582 21.9115 46.498 22.6018 46.498ZM52.6168 13.9817H54.4927C54.8379 13.9817 55.1181 14.2618 55.1181 14.607V17.4247C55.1181 17.6873 54.953 17.9212 54.7079 18.0112C52.4054 18.7015 50.7409 20.8376 50.7409 23.3614C50.7409 25.8801 52.4005 28.015 54.6841 28.7316C54.923 28.8091 55.0905 29.0392 55.0905 29.2981C55.0905 29.3181 55.0905 29.3369 55.0918 29.3556C55.1181 29.9372 55.1181 30.6 55.1181 31.1815C55.1181 31.4442 54.953 31.678 54.7079 31.7681C52.4054 32.4584 50.7409 34.5945 50.7409 37.1183C50.7409 39.637 52.4005 41.7718 54.6841 42.4885C54.923 42.566 55.0905 42.7961 55.0905 43.055V43.0963C55.1181 43.9379 55.1181 44.9859 55.1181 45.8726C55.1181 46.2178 54.8379 46.498 54.4927 46.498H26.3537C25.6633 46.498 25.1031 47.0582 25.1031 47.7486C25.1031 48.4389 25.6633 48.9992 26.3537 48.9992H54.4927C56.2199 48.9992 57.6193 47.5998 57.6193 45.8726C57.6193 44.9647 57.6193 43.8904 57.5918 43.025C57.5818 41.6955 56.7151 40.515 55.4407 40.1048C55.4382 40.1048 55.4357 40.1035 55.4332 40.1022C54.1638 39.7045 53.2421 38.5177 53.2421 37.1183C53.2421 35.7263 54.1551 34.5432 55.4232 34.1655C55.432 34.163 55.4407 34.1605 55.4495 34.1568C56.7426 33.7416 57.6193 32.5397 57.6193 31.1815C57.6193 30.5725 57.6193 29.8796 57.5918 29.2681C57.578 27.9349 56.7126 26.7568 55.4407 26.3479C55.4382 26.3479 55.4357 26.3466 55.4332 26.3454C54.1638 25.9477 53.2421 24.7608 53.2421 23.3614C53.2421 21.9694 54.1551 20.7864 55.4232 20.4087C55.432 20.4062 55.4407 20.4036 55.4495 20.3999C56.7426 19.9847 57.6193 18.7828 57.6193 17.4247V14.607C57.6193 12.8799 56.2199 11.4805 54.4927 11.4805H52.6168C51.9265 11.4805 51.3662 12.0407 51.3662 12.7311C51.3662 13.4214 51.9265 13.9817 52.6168 13.9817ZM17.5993 46.498V43.3614C17.5993 42.671 17.039 42.1108 16.3487 42.1108C15.6583 42.1108 15.0981 42.671 15.0981 43.3614V46.498H5.71836C5.37319 46.498 5.09305 46.2178 5.09305 45.8726V43.055C5.09305 42.7924 5.25813 42.5585 5.50326 42.4685C7.80566 41.7781 9.47024 39.642 9.47024 37.1183C9.47024 34.5995 7.81066 32.4647 5.52702 31.7481C5.28815 31.6705 5.12057 31.4404 5.12057 31.1815C5.12057 31.1615 5.12056 31.1428 5.11931 31.124C5.09304 30.5425 5.09305 29.8797 5.09305 29.2981C5.09305 29.0355 5.25813 28.8016 5.50326 28.7116C7.80566 28.0212 9.47024 25.8852 9.47024 23.3614C9.47024 20.8426 7.81066 18.7078 5.52702 17.9912C5.28815 17.9137 5.12057 17.6835 5.12057 17.4247C5.12057 17.4109 5.12057 17.3972 5.12057 17.3834C5.09305 16.5417 5.09305 15.4937 5.09305 14.607C5.09305 14.2618 5.37319 13.9817 5.71836 13.9817H15.0981V18.3489C15.0981 19.0392 15.6583 19.5995 16.3487 19.5995C17.039 19.5995 17.5993 19.0392 17.5993 18.3489V13.9817H48.8649C49.5553 13.9817 50.1156 13.4214 50.1156 12.7311C50.1156 12.0407 49.5553 11.4805 48.8649 11.4805C48.8649 11.4805 12.5468 11.4805 5.71836 11.4805C3.99125 11.4805 2.5918 12.8799 2.5918 14.607C2.5918 15.515 2.5918 16.5893 2.61932 17.4547C2.62932 18.7841 3.49601 19.9647 4.77039 20.3749C4.77289 20.3749 4.77539 20.3762 4.77789 20.3774C6.04728 20.7751 6.96899 21.9619 6.96899 23.3614C6.96899 24.7533 6.05603 25.9364 4.78789 26.3141C4.77914 26.3166 4.77039 26.3191 4.76163 26.3229C3.46849 26.7381 2.5918 27.9399 2.5918 29.2981C2.5918 29.9072 2.5918 30.6 2.61932 31.2116C2.63307 32.5447 3.49851 33.7228 4.77039 34.1318C4.77289 34.1318 4.77539 34.133 4.77789 34.1343C6.04728 34.532 6.96899 35.7188 6.96899 37.1183C6.96899 38.5102 6.05603 39.6933 4.78789 40.071C4.77914 40.0735 4.77039 40.076 4.76163 40.0798C3.46849 40.495 2.5918 41.6968 2.5918 43.055V45.8726C2.5918 47.5998 3.99125 48.9992 5.71836 48.9992H18.8499C19.5403 48.9992 20.1006 48.4389 20.1006 47.7486C20.1006 47.0582 19.5403 46.498 18.8499 46.498H17.5993ZM15.0981 33.3564V38.3589C15.0981 39.0492 15.6583 39.6095 16.3487 39.6095C17.039 39.6095 17.5993 39.0492 17.5993 38.3589V33.3564C17.5993 32.666 17.039 32.1058 16.3487 32.1058C15.6583 32.1058 15.0981 32.666 15.0981 33.3564ZM15.0981 23.3514V28.3539C15.0981 29.0442 15.6583 29.6045 16.3487 29.6045C17.039 29.6045 17.5993 29.0442 17.5993 28.3539V23.3514C17.5993 22.661 17.039 22.1008 16.3487 22.1008C15.6583 22.1008 15.0981 22.661 15.0981 23.3514Z" fill="#EB662B"/>
<path fill-rule="evenodd" clip-rule="evenodd" d="M31.2226 23.1678L30.3297 24.5343C30.2452 24.6625 30.117 24.756 29.9692 24.7952L28.3946 25.2221C27.375 25.4981 26.5651 26.2703 26.2378 27.2748C25.912 28.2778 26.1141 29.3788 26.7762 30.2008L27.8004 31.4723C27.8969 31.5914 27.9452 31.7422 27.9376 31.8946L27.8562 33.525C27.8049 34.5792 28.2875 35.5898 29.1412 36.2097C29.9964 36.8296 31.1049 36.9774 32.0913 36.6018L33.6162 36.0211C33.761 35.9668 33.9178 35.9668 34.0611 36.0211L35.5875 36.6018C36.5739 36.9774 37.6824 36.8296 38.5376 36.2097C39.3913 35.5898 39.8739 34.5792 39.8226 33.525L39.7412 31.8946C39.7336 31.7422 39.7819 31.5914 39.8784 31.4723L40.9025 30.2008C41.5647 29.3788 41.7668 28.2778 41.441 27.2748C41.1137 26.2703 40.3038 25.4981 39.2842 25.2221L37.7096 24.7952C37.5618 24.756 37.4336 24.6625 37.3491 24.5343L36.4562 23.1678C35.8801 22.284 34.8952 21.7515 33.8394 21.7515C32.7836 21.7515 31.7987 22.284 31.2226 23.1678ZM33.316 24.5358C33.4322 24.3593 33.6282 24.2523 33.8394 24.2523C34.0506 24.2523 34.2466 24.3593 34.3628 24.5358L35.2556 25.9023C35.6749 26.5448 36.316 27.0093 37.055 27.2099L38.6311 27.6368C38.8347 27.6926 38.9961 27.8464 39.061 28.047C39.1273 28.2476 39.0866 28.4678 38.9539 28.6322L37.9298 29.9037C37.4502 30.5009 37.2043 31.2536 37.2435 32.0198L37.3235 33.6487C37.334 33.8598 37.2375 34.0619 37.0671 34.1856C36.8966 34.3108 36.6749 34.3395 36.4773 34.264L34.9525 33.6834C34.2346 33.4119 33.4442 33.4119 32.7263 33.6834L31.2015 34.264C31.0039 34.3395 30.7822 34.3108 30.6117 34.1856C30.4413 34.0619 30.3448 33.8598 30.3553 33.6487L30.4353 32.0198C30.4745 31.2536 30.2286 30.5009 29.749 29.9037L28.7249 28.6322C28.5922 28.4678 28.5515 28.2476 28.6178 28.047C28.6827 27.8464 28.8441 27.6926 29.0477 27.6368L30.6238 27.2099C31.3628 27.0093 32.0039 26.5448 32.4232 25.9023L33.316 24.5358Z" fill="#EB662B"/>
</g>
</g>
<defs>
<clipPath id="clip0_2103_8536">
<rect width="60" height="60" fill="white"/>
</clipPath>
<clipPath id="clip1_2103_8536">
<rect width="60" height="60" fill="white"/>
</clipPath>
</defs>
</svg>
